<svg width="22" height="29" viewBox="0 0 22 29" fill="none" xmlns="http://www.w3.org/2000/svg">
<path fill-rule="evenodd" clip-rule="evenodd" d="M11 0.666656C7.31808 0.666656 4.33331 3.65143 4.33331 7.33332C4.33331 11.0152 7.31808 14 11 14C14.6819 14 17.6666 11.0152 17.6666 7.33332C17.6666 3.65143 14.6819 0.666656 11 0.666656ZM6.99998 7.33332C6.99998 5.12418 8.79084 3.33332 11 3.33332C13.2091 3.33332 15 5.12418 15 7.33332C15 9.54246 13.2091 11.3333 11 11.3333C8.79084 11.3333 6.99998 9.54246 6.99998 7.33332Z" fill="#EAFBFF"/>
<path fill-rule="evenodd" clip-rule="evenodd" d="M11 28.6667C8.94597 28.6667 5.97307 28.2003 3.74055 27.2232C2.64455 26.7435 1.52992 26.057 0.882317 25.0632C0.541735 24.5406 0.326424 23.9249 0.333481 23.2376C0.340474 22.5566 0.564565 21.9041 0.9412 21.2971C2.76707 18.3541 6.50237 15.3333 11 15.3333C15.4976 15.3333 19.2329 18.3541 21.0588 21.2971C21.4354 21.9041 21.6595 22.5566 21.6665 23.2376C21.6735 23.9249 21.4582 24.5406 21.1176 25.0632C20.47 26.057 19.3554 26.7435 18.2594 27.2232C16.0269 28.2003 13.054 28.6667 11 28.6667ZM3.20717 22.7029C3.0316 22.9859 3.00101 23.1676 3.00001 23.265C2.99907 23.3561 3.02246 23.463 3.11647 23.6073C3.33803 23.9473 3.87607 24.3716 4.80975 24.7802C6.63657 25.5798 9.23096 26 11 26C12.769 26 15.3634 25.5798 17.1902 24.7802C18.1239 24.3716 18.6619 23.9473 18.8835 23.6073C18.9775 23.463 19.0009 23.3561 19 23.265C18.999 23.1676 18.9684 22.9859 18.7928 22.7029C17.2966 20.2914 14.3124 18 11 18C7.68753 18 4.70337 20.2914 3.20717 22.7029Z" fill="#EAFBFF"/>
</svg>
