<svg width="32" height="32" viewBox="0 0 32 32" fill="none" xmlns="http://www.w3.org/2000/svg">
<path fill-rule="evenodd" clip-rule="evenodd" d="M17.3338 4.00033C17.3338 3.26395 16.7369 2.66699 16.0005 2.66699C15.2641 2.66699 14.6672 3.26395 14.6672 4.00033V4.76148C10.1443 5.40823 6.66716 9.29664 6.66716 13.9989L6.66716 19.3327C6.66715 19.3327 6.66717 19.3325 6.66716 19.3327C6.66703 19.3353 6.66612 19.3532 6.66034 19.3881C6.6534 19.4301 6.64107 19.4873 6.62073 19.5607C6.5795 19.7096 6.51387 19.8951 6.42218 20.1143C6.23836 20.5538 5.97922 21.0599 5.69261 21.5704C5.15375 22.5303 4.88213 23.6742 5.08604 24.762C5.30109 25.9091 6.03948 26.9095 7.30057 27.3897C8.42711 27.8186 9.92666 28.2108 11.907 28.4444C11.9541 28.4852 12.0098 28.5319 12.0738 28.5832C12.2742 28.7435 12.5605 28.9512 12.9223 29.158C13.6404 29.5683 14.7021 30.0003 16.0005 30.0003C17.2989 30.0003 18.3606 29.5683 19.0787 29.158C19.4405 28.9512 19.7268 28.7435 19.9272 28.5832C19.9912 28.5319 20.0469 28.4852 20.094 28.4444C22.0743 28.2108 23.5739 27.8186 24.7004 27.3897C25.9615 26.9095 26.6999 25.9091 26.9149 24.762C27.1189 23.6742 26.8472 22.5303 26.3084 21.5704C26.0218 21.0599 25.7626 20.5538 25.5788 20.1143C25.4871 19.8951 25.4215 19.7096 25.3802 19.5607C25.3599 19.4873 25.3476 19.4301 25.3406 19.3881C25.3349 19.3531 25.334 19.3356 25.3338 19.3331C25.3338 19.3328 25.3338 19.3331 25.3338 19.3331L25.3338 19.3218V13.9995C25.3338 9.29739 21.8568 5.40834 17.3338 4.76149V4.00033ZM9.33382 13.9989C9.33382 10.3173 12.3183 7.33366 16.0005 7.33366C19.6826 7.33366 22.6672 10.3178 22.6672 13.9995V19.3337C22.6672 19.9509 22.8984 20.6167 23.1186 21.1432C23.3578 21.7151 23.6712 22.3203 23.983 22.8758C24.2862 23.4158 24.3585 23.9262 24.2939 24.2706C24.2405 24.5557 24.098 24.7656 23.7515 24.8976C22.3184 25.4433 19.8991 26.0003 16.0005 26.0003C12.1019 26.0003 9.68263 25.4433 8.24948 24.8976C7.903 24.7656 7.7605 24.5557 7.70706 24.2706C7.64248 23.9262 7.71477 23.4158 8.01794 22.8758C8.32973 22.3203 8.64319 21.7151 8.88238 21.1432C9.10255 20.6167 9.33382 19.9509 9.33382 19.3337V13.9989Z" fill="url(#paint0_linear_645_3445)"/>
<defs>
<linearGradient id="paint0_linear_645_3445" x1="5.01825" y1="16.3337" x2="26.9827" y2="16.3337" gradientUnits="userSpaceOnUse">
<stop stop-color="#EAF9FF"/>
<stop offset="1" stop-color="#8E9A9A"/>
</linearGradient>
</defs>
</svg>
