<svg width="32" height="32" viewBox="0 0 32 32" fill="none" xmlns="http://www.w3.org/2000/svg">
<path fill-rule="evenodd" clip-rule="evenodd" d="M13.1659 3.74343C11.0832 1.66063 7.70627 1.66064 5.62348 3.74343L4.90943 4.45748C3.92494 5.44197 3.25157 6.91726 3.63566 8.5154C4.22447 10.9654 5.99633 15.43 11.2803 20.714C16.5643 25.998 21.0289 27.7699 23.4789 28.3587C25.0771 28.7428 26.5524 28.0694 27.5369 27.0849L28.2509 26.3709C30.3337 24.2881 30.3337 20.9112 28.2509 18.8284L27.0124 17.5899C25.3147 15.8922 22.6919 15.5381 20.6049 16.7249L20.4762 16.7981C19.6209 17.2844 18.6384 17.2447 17.9424 16.7409C17.3807 16.3345 16.8439 15.9067 16.4658 15.5285C16.0876 15.1504 15.6599 14.6136 15.2534 14.052C14.7497 13.3559 14.7099 12.3734 15.1962 11.5182L15.2694 11.3895C16.4562 9.30239 16.1021 6.67962 14.4045 4.98194L13.1659 3.74343ZM7.5091 5.62905C8.5505 4.58765 10.2389 4.58765 11.2803 5.62905L12.5188 6.86755C13.3677 7.71639 13.5447 9.02778 12.9513 10.0713L12.8781 10.2C11.9383 11.8529 11.9053 13.9741 13.0931 15.6154C13.5294 16.2183 14.0538 16.8878 14.5802 17.4142C15.1066 17.9406 15.7761 18.4649 16.3789 18.9012C18.0203 20.089 20.1414 20.0561 21.7943 19.1162L21.923 19.043C22.9666 18.4496 24.2779 18.6267 25.1268 19.4755L26.3653 20.714C27.4067 21.7554 27.4067 23.4438 26.3653 24.4852L25.6512 25.1993C25.1354 25.7151 24.5669 25.8776 24.1021 25.7658C22.1434 25.2951 18.1122 23.7746 13.1659 18.8284C8.21972 13.8821 6.69923 9.85098 6.22849 7.89226C6.11677 7.4274 6.27925 6.8589 6.79505 6.3431L7.5091 5.62905Z" fill="#EAFBFF"/>
</svg>
