<svg width="22" height="16" viewBox="0 0 22 16" fill="none" xmlns="http://www.w3.org/2000/svg">
<path d="M3.59292 5.63079C4.074 5.79115 4.4515 6.16866 4.61186 6.64974C4.77507 7.13935 5.46761 7.13935 5.63081 6.64974C5.79117 6.16866 6.16868 5.79115 6.64976 5.63079C7.13937 5.46759 7.13937 4.77505 6.64976 4.61185C6.16868 4.45149 5.79117 4.07398 5.63081 3.5929C5.46761 3.10329 4.77507 3.10329 4.61186 3.5929C4.4515 4.07398 4.074 4.45149 3.59292 4.61185C3.10331 4.77505 3.10331 5.46759 3.59292 5.63079Z" fill="#EAFBFF"/>
<path fill-rule="evenodd" clip-rule="evenodd" d="M4 0C1.79086 0 0 1.79086 0 4V12C0 14.2091 1.79086 16 4 16H14C15.8925 16 17.478 14.6858 17.8936 12.9202L18.8 13.6C20.1185 14.5889 22 13.6481 22 12V4C22 2.35191 20.1185 1.41115 18.8 2.4L17.8936 3.07977C17.478 1.31421 15.8925 0 14 0H4ZM20 12L18 10.5V5.5L20 4V12ZM2 4C2 2.89543 2.89543 2 4 2H14C15.1046 2 16 2.89543 16 4V12C16 13.1046 15.1046 14 14 14H4C2.89543 14 2 13.1046 2 12V4Z" fill="#EAFBFF"/>
</svg>
