<svg width="32" height="32" viewBox="0 0 32 32" fill="none" xmlns="http://www.w3.org/2000/svg">
<path fill-rule="evenodd" clip-rule="evenodd" d="M9.33331 9.33332C9.33331 5.65143 12.3181 2.66666 16 2.66666C19.6819 2.66666 22.6666 5.65143 22.6666 9.33332C22.6666 13.0152 19.6819 16 16 16C12.3181 16 9.33331 13.0152 9.33331 9.33332ZM16 5.33332C13.7908 5.33332 12 7.12418 12 9.33332C12 11.5425 13.7908 13.3333 16 13.3333C18.2091 13.3333 20 11.5425 20 9.33332C20 7.12418 18.2091 5.33332 16 5.33332Z" fill="#EAFBFF"/>
<path fill-rule="evenodd" clip-rule="evenodd" d="M8.74055 29.2232C10.9731 30.2003 13.946 30.6667 16 30.6667C18.054 30.6667 21.0269 30.2003 23.2594 29.2232C24.3554 28.7435 25.47 28.057 26.1176 27.0632C26.4582 26.5406 26.6735 25.9249 26.6665 25.2376C26.6595 24.5566 26.4354 23.9041 26.0588 23.2971C24.2329 20.3541 20.4976 17.3333 16 17.3333C11.5024 17.3333 7.76707 20.3541 5.9412 23.2971C5.56457 23.9041 5.34047 24.5566 5.33348 25.2376C5.32642 25.9249 5.54174 26.5406 5.88232 27.0632C6.52992 28.057 7.64455 28.7435 8.74055 29.2232ZM8.00001 25.265C8.00101 25.1676 8.0316 24.9859 8.20717 24.7029C9.70337 22.2914 12.6875 20 16 20C19.3124 20 22.2966 22.2914 23.7928 24.7029C23.9684 24.9859 23.999 25.1676 24 25.265C24.0009 25.3561 23.9775 25.463 23.8835 25.6073C23.6619 25.9473 23.1239 26.3716 22.1902 26.7802C20.3634 27.5798 17.769 28 16 28C14.231 28 11.6366 27.5798 9.80975 26.7802C8.87607 26.3716 8.33803 25.9473 8.11647 25.6073C8.02246 25.463 7.99907 25.3561 8.00001 25.265Z" fill="#EAFBFF"/>
<path d="M28 3.99999C28 3.26361 27.403 2.66666 26.6666 2.66666C25.9303 2.66666 25.3333 3.26361 25.3333 3.99999V5.33332H24C23.2636 5.33332 22.6666 5.93028 22.6666 6.66666C22.6666 7.40304 23.2636 7.99999 24 7.99999H25.3333V9.33332C25.3333 10.0697 25.9303 10.6667 26.6666 10.6667C27.403 10.6667 28 10.0697 28 9.33332V7.99999H29.3333C30.0697 7.99999 30.6666 7.40304 30.6666 6.66666C30.6666 5.93028 30.0697 5.33332 29.3333 5.33332H28V3.99999Z" fill="#EAFBFF"/>
</svg>
