<svg width="29" height="30" viewBox="0 0 29 30" fill="none" xmlns="http://www.w3.org/2000/svg">
<path fill-rule="evenodd" clip-rule="evenodd" d="M0.333313 14.9997C0.333313 6.8995 6.8998 0.333008 15 0.333008C16.2854 0.333008 17.5341 0.498692 18.7251 0.810581C19.2191 0.939952 19.6186 1.25637 19.8523 1.68645C20.0711 2.08919 20.107 2.51703 20.0549 2.87272C19.9557 3.54951 19.4657 4.32704 18.5477 4.54618C15.0333 5.38514 12.3333 8.59242 12.3333 12.333C12.3333 16.7513 15.915 20.333 20.3333 20.333C22.3002 20.333 24.0983 19.6249 25.4917 18.4481C26.2127 17.8391 27.1303 17.9051 27.7363 18.2337C28.0538 18.4059 28.3746 18.6925 28.5645 19.1102C28.7669 19.5556 28.7781 20.0632 28.5866 20.533C26.4037 25.888 21.1447 29.6663 15 29.6663C6.8998 29.6663 0.333313 23.0998 0.333313 14.9997ZM15 2.99967C8.37256 2.99967 2.99998 8.37226 2.99998 14.9997C2.99998 21.6271 8.37256 26.9997 15 26.9997C18.9834 26.9997 22.5155 25.0585 24.6987 22.068C23.3659 22.6665 21.8879 22.9997 20.3333 22.9997C14.4423 22.9997 9.66665 18.224 9.66665 12.333C9.66665 8.32417 11.9527 4.82346 15.2336 3.0019C15.1559 3.00042 15.078 2.99967 15 2.99967Z" fill="url(#paint0_linear_1103_991)"/>
<path d="M19.4573 9.72161C19.2792 9.18707 18.8597 8.76762 18.3252 8.58945C17.7812 8.40811 17.7812 7.63862 18.3252 7.45728C18.8597 7.2791 19.2792 6.85965 19.4573 6.32512C19.6387 5.78111 20.4082 5.78111 20.5895 6.32512C20.7677 6.85965 21.1871 7.2791 21.7217 7.45728C22.2657 7.63862 22.2657 8.40811 21.7217 8.58945C21.1871 8.76762 20.7677 9.18707 20.5895 9.72161C20.4082 10.2656 19.6387 10.2656 19.4573 9.72161Z" fill="url(#paint1_linear_1103_991)"/>
<path d="M16.9918 16.5894C17.5264 16.7676 17.9458 17.1871 18.124 17.7216C18.3053 18.2656 19.0748 18.2656 19.2562 17.7216C19.4343 17.1871 19.8538 16.7676 20.3883 16.5894C20.9323 16.4081 20.9323 15.6386 20.3883 15.4573C19.8538 15.2791 19.4343 14.8597 19.2562 14.3251C19.0748 13.7811 18.3053 13.7811 18.124 14.3251C17.9458 14.8597 17.5264 15.2791 16.9918 15.4573C16.4478 15.6386 16.4478 16.4081 16.9918 16.5894Z" fill="url(#paint2_linear_1103_991)"/>
<defs>
<linearGradient id="paint0_linear_1103_991" x1="0.333313" y1="14.9997" x2="28.7235" y2="14.9997" gradientUnits="userSpaceOnUse">
<stop stop-color="#EAF9FF"/>
<stop offset="1" stop-color="#8E9A9A"/>
</linearGradient>
<linearGradient id="paint1_linear_1103_991" x1="0.333313" y1="14.9997" x2="28.7235" y2="14.9997" gradientUnits="userSpaceOnUse">
<stop stop-color="#EAF9FF"/>
<stop offset="1" stop-color="#8E9A9A"/>
</linearGradient>
<linearGradient id="paint2_linear_1103_991" x1="0.333313" y1="14.9997" x2="28.7235" y2="14.9997" gradientUnits="userSpaceOnUse">
<stop stop-color="#EAF9FF"/>
<stop offset="1" stop-color="#8E9A9A"/>
</linearGradient>
</defs>
</svg>
