<svg width="26" height="29" viewBox="0 0 26 29" fill="none" xmlns="http://www.w3.org/2000/svg">
<path d="M14.3334 1.66732C14.3334 0.930938 13.7364 0.333984 13.0001 0.333984C12.2637 0.333984 11.6667 0.930938 11.6667 1.66732V3.66732C11.6667 4.4037 12.2637 5.00065 13.0001 5.00065C13.7364 5.00065 14.3334 4.4037 14.3334 3.66732V1.66732Z" fill="url(#paint0_linear_1103_1768)"/>
<path fill-rule="evenodd" clip-rule="evenodd" d="M3.66673 15.0007C3.66673 9.84599 7.8454 5.66732 13.0001 5.66732C18.1547 5.66732 22.3334 9.84599 22.3334 15.0007C22.3334 20.1553 18.1547 24.334 13.0001 24.334C7.8454 24.334 3.66673 20.1553 3.66673 15.0007ZM13.0001 8.33398C9.31816 8.33398 6.33339 11.3188 6.33339 15.0007C6.33339 18.6825 9.31816 21.6673 13.0001 21.6673C16.682 21.6673 19.6667 18.6825 19.6667 15.0007C19.6667 11.3188 16.682 8.33398 13.0001 8.33398Z" fill="url(#paint1_linear_1103_1768)"/>
<path d="M13.0001 24.334C13.7364 24.334 14.3334 24.9309 14.3334 25.6673V27.6673C14.3334 28.4037 13.7364 29.0006 13.0001 29.0006C12.2637 29.0006 11.6667 28.4037 11.6667 27.6673V25.6673C11.6667 24.9309 12.2637 24.334 13.0001 24.334Z" fill="url(#paint2_linear_1103_1768)"/>
<path d="M21.6585 19.6673C22.0267 19.0296 22.8422 18.8111 23.4799 19.1793L25.2119 20.1793C25.8497 20.5475 26.0682 21.3629 25.7 22.0007C25.3318 22.6384 24.5163 22.8569 23.8786 22.4887L22.1465 21.4887C21.5088 21.1205 21.2903 20.305 21.6585 19.6673Z" fill="url(#paint3_linear_1103_1768)"/>
<path d="M22.1465 8.51262C21.5088 8.88081 21.2903 9.69626 21.6585 10.334C22.0267 10.9717 22.8422 11.1902 23.4799 10.822L25.2119 9.82202C25.8497 9.45383 26.0682 8.63837 25.7 8.00065C25.3318 7.36293 24.5163 7.14443 23.8786 7.51262L22.1465 8.51262Z" fill="url(#paint4_linear_1103_1768)"/>
<path d="M2.11985 7.17928C1.48213 6.81109 0.666674 7.02959 0.298484 7.66732C-0.0697055 8.30504 0.148795 9.12049 0.786518 9.48868L2.51857 10.4887C3.15629 10.8569 3.97175 10.6384 4.33994 10.0007C4.70813 9.36293 4.48963 8.54747 3.8519 8.17928L2.11985 7.17928Z" fill="url(#paint5_linear_1103_1768)"/>
<path d="M0.298484 22.334C-0.0697055 21.6963 0.148795 20.8808 0.786518 20.5126L2.51857 19.5126C3.15629 19.1444 3.97175 19.3629 4.33994 20.0007C4.70813 20.6384 4.48963 21.4538 3.8519 21.822L2.11985 22.822C1.48213 23.1902 0.666674 22.9717 0.298484 22.334Z" fill="url(#paint6_linear_1103_1768)"/>
<defs>
<linearGradient id="paint0_linear_1103_1768" x1="12.9992" y1="0.333984" x2="12.9992" y2="29.0007" gradientUnits="userSpaceOnUse">
<stop stop-color="#04080C"/>
<stop offset="0.99" stop-color="#09131A"/>
</linearGradient>
<linearGradient id="paint1_linear_1103_1768" x1="12.9992" y1="0.333984" x2="12.9992" y2="29.0007" gradientUnits="userSpaceOnUse">
<stop stop-color="#04080C"/>
<stop offset="0.99" stop-color="#09131A"/>
</linearGradient>
<linearGradient id="paint2_linear_1103_1768" x1="12.9992" y1="0.333984" x2="12.9992" y2="29.0007" gradientUnits="userSpaceOnUse">
<stop stop-color="#04080C"/>
<stop offset="0.99" stop-color="#09131A"/>
</linearGradient>
<linearGradient id="paint3_linear_1103_1768" x1="12.9992" y1="0.333984" x2="12.9992" y2="29.0007" gradientUnits="userSpaceOnUse">
<stop stop-color="#04080C"/>
<stop offset="0.99" stop-color="#09131A"/>
</linearGradient>
<linearGradient id="paint4_linear_1103_1768" x1="12.9992" y1="0.333984" x2="12.9992" y2="29.0007" gradientUnits="userSpaceOnUse">
<stop stop-color="#04080C"/>
<stop offset="0.99" stop-color="#09131A"/>
</linearGradient>
<linearGradient id="paint5_linear_1103_1768" x1="12.9992" y1="0.333984" x2="12.9992" y2="29.0007" gradientUnits="userSpaceOnUse">
<stop stop-color="#04080C"/>
<stop offset="0.99" stop-color="#09131A"/>
</linearGradient>
<linearGradient id="paint6_linear_1103_1768" x1="12.9992" y1="0.333984" x2="12.9992" y2="29.0007" gradientUnits="userSpaceOnUse">
<stop stop-color="#04080C"/>
<stop offset="0.99" stop-color="#09131A"/>
</linearGradient>
</defs>
</svg>
