<svg width="260" height="260" viewBox="0 0 260 260" fill="none" xmlns="http://www.w3.org/2000/svg">
<path d="M0 130C0 111.986 3.0109 95.1064 9.0327 79.3617C15.1726 63.617 23.851 49.8582 35.0681 38.0851C46.4033 26.3121 60.0409 17.0213 75.9809 10.2128C92.0391 3.40426 110.045 0 130 0C149.955 0 167.902 3.40426 183.842 10.2128C199.9 17.0213 213.538 26.3121 224.755 38.0851C236.09 49.8582 244.768 63.617 250.79 79.3617C256.93 95.1064 260 111.986 260 130C260 148.014 256.93 164.894 250.79 180.638C244.768 196.383 236.09 210.142 224.755 221.915C213.538 233.688 199.9 242.979 183.842 249.787C167.902 256.596 149.955 260 130 260C110.045 260 92.0391 256.596 75.9809 249.787C60.0409 242.979 46.4033 233.688 35.0681 221.915C23.851 210.142 15.1726 196.383 9.0327 180.638C3.0109 164.894 0 148.014 0 130ZM55.0817 130C55.0817 140.071 56.7348 149.645 60.0409 158.723C63.465 167.66 68.3651 175.603 74.7411 182.553C81.2352 189.362 89.0872 194.823 98.297 198.936C107.625 202.908 118.193 204.894 130 204.894C141.807 204.894 152.316 202.908 161.526 198.936C170.854 194.823 178.706 189.362 185.082 182.553C191.576 175.603 196.476 167.66 199.782 158.723C203.206 149.645 204.918 140.071 204.918 130C204.918 119.929 203.206 110.355 199.782 101.277C196.476 92.1986 191.576 84.2553 185.082 77.4468C178.706 70.4965 170.854 65.0355 161.526 61.0638C152.316 56.9504 141.807 54.8936 130 54.8936C118.193 54.8936 107.625 56.9504 98.297 61.0638C89.0872 65.0355 81.2352 70.4965 74.7411 77.4468C68.3651 84.2553 63.465 92.1986 60.0409 101.277C56.7348 110.355 55.0817 119.929 55.0817 130Z" fill="url(#paint0_linear_660_5580)"/>
<path d="M77.1187 130C77.1187 122.673 78.3434 115.806 80.793 109.402C83.2905 102.997 86.8208 97.4004 91.3836 92.6114C95.9946 87.8224 101.542 84.043 108.026 81.2735C114.558 78.5039 121.883 77.1191 130 77.1191C138.117 77.1191 145.418 78.5039 151.902 81.2735C158.434 84.043 163.981 87.8224 168.544 92.6114C173.155 97.4004 176.685 102.997 179.135 109.402C181.633 115.806 182.881 122.673 182.881 130C182.881 137.328 181.633 144.195 179.135 150.599C176.685 157.004 173.155 162.601 168.544 167.39C163.981 172.179 158.434 175.958 151.902 178.728C145.418 181.497 138.117 182.882 130 182.882C121.883 182.882 114.558 181.497 108.026 178.728C101.542 175.958 95.9946 172.179 91.3836 167.39C86.8208 162.601 83.2905 157.004 80.793 150.599C78.3434 144.195 77.1187 137.328 77.1187 130ZM99.5248 130C99.5248 134.097 100.197 137.992 101.542 141.685C102.935 145.32 104.928 148.551 107.522 151.378C110.163 154.148 113.358 156.369 117.104 158.042C120.898 159.658 125.197 160.466 130 160.466C134.803 160.466 139.078 159.658 142.824 158.042C146.618 156.369 149.812 154.148 152.406 151.378C155.048 148.551 157.041 145.32 158.386 141.685C159.779 137.992 160.475 134.097 160.475 130C160.475 125.904 159.779 122.009 158.386 118.316C157.041 114.624 155.048 111.392 152.406 108.623C149.812 105.796 146.618 103.574 142.824 101.959C139.078 100.285 134.803 99.4487 130 99.4487C125.197 99.4487 120.898 100.285 117.104 101.959C113.358 103.574 110.163 105.796 107.522 108.623C104.928 111.392 102.935 114.624 101.542 118.316C100.197 122.009 99.5248 125.904 99.5248 130Z" fill="url(#paint1_linear_660_5580)"/>
<defs>
<linearGradient id="paint0_linear_660_5580" x1="0" y1="130" x2="260" y2="130" gradientUnits="userSpaceOnUse">
<stop stop-color="#19B1D2"/>
<stop offset="1" stop-color="#0094FF"/>
</linearGradient>
<linearGradient id="paint1_linear_660_5580" x1="77.1187" y1="130" x2="182.881" y2="130" gradientUnits="userSpaceOnUse">
<stop stop-color="#19B1D2"/>
<stop offset="1" stop-color="#0094FF"/>
</linearGradient>
</defs>
</svg>
