<svg width="24" height="24" viewBox="0 0 24 24" fill="none" xmlns="http://www.w3.org/2000/svg">
<path fill-rule="evenodd" clip-rule="evenodd" d="M20.5961 2.91033C19.2495 1.56374 17.0662 1.56374 15.7196 2.91033L7.19416 11.4358C6.58217 12.0478 6.18518 12.8418 6.06279 13.6985L5.81573 15.4279C5.62717 16.7478 6.75854 17.8792 8.07847 17.6906L9.80784 17.4436C10.6646 17.3212 11.4586 16.9242 12.0706 16.3122L20.5961 7.78676C21.9426 6.44017 21.9426 4.25692 20.5961 2.91033ZM17.3433 4.15085C17.907 3.76659 18.6818 3.82448 19.1818 4.32455C19.6819 4.82461 19.7398 5.59939 19.3555 6.16307L17.3433 4.15085ZM15.9112 5.54717L17.9592 7.59518L10.6564 14.898C10.3504 15.204 9.95339 15.4025 9.525 15.4637L7.79563 15.7108L8.04269 13.9814C8.10388 13.553 8.30238 13.156 8.60837 12.85L15.9112 5.54717Z" fill="url(#paint0_linear_706_1354)"/>
<path d="M6 2.00035C3.79086 2.00035 2 3.79121 2 6.00035V18.0003C2 20.2095 3.79086 22.0003 6 22.0003H18C20.2091 22.0003 22 20.2095 22 18.0003V12.0003C22 11.4481 21.5523 11.0003 21 11.0003C20.4477 11.0003 20 11.4481 20 12.0003V18.0003C20 19.1049 19.1046 20.0003 18 20.0003H6C4.89543 20.0003 4 19.1049 4 18.0003V6.00035C4 4.89578 4.89543 4.00035 6 4.00035H8.68421C9.2365 4.00035 9.68421 3.55263 9.68421 3.00035C9.68421 2.44806 9.2365 2.00035 8.68421 2.00035H6Z" fill="url(#paint1_linear_706_1354)"/>
<defs>
<linearGradient id="paint0_linear_706_1354" x1="2" y1="11.9504" x2="22" y2="11.9504" gradientUnits="userSpaceOnUse">
<stop stop-color="#EAF9FF"/>
<stop offset="1" stop-color="#8E9A9A"/>
</linearGradient>
<linearGradient id="paint1_linear_706_1354" x1="2" y1="11.9504" x2="22" y2="11.9504" gradientUnits="userSpaceOnUse">
<stop stop-color="#EAF9FF"/>
<stop offset="1" stop-color="#8E9A9A"/>
</linearGradient>
</defs>
</svg>
