<svg width="142" height="141" viewBox="0 0 142 141" fill="none" xmlns="http://www.w3.org/2000/svg">
<g opacity="0.501876">
<path d="M114.403 5.75635C118.695 5.75635 122.179 9.23777 122.179 13.5256C122.179 17.8135 118.695 21.2949 114.403 21.2949C110.111 21.2949 106.627 17.8135 106.627 13.5256C106.627 9.23777 110.111 5.75635 114.403 5.75635Z" fill="#03FF98"/>
<path d="M22.0919 17.7856C25.553 17.7856 28.3631 20.5932 28.3631 24.0512C28.3631 27.5092 25.553 30.3167 22.0919 30.3167C18.6309 30.3167 15.8208 27.5092 15.8208 24.0512C15.8208 20.5932 18.6309 17.7856 22.0919 17.7856Z" fill="#03FF98"/>
<path d="M18.5802 108.511C22.595 108.511 25.8547 111.768 25.8547 115.779C25.8547 119.791 22.595 123.047 18.5802 123.047C14.5654 123.047 11.3057 119.791 11.3057 115.779C11.3057 111.768 14.5654 108.511 18.5802 108.511Z" fill="#03FF98"/>
<path d="M123.434 101.494C126.618 101.494 129.203 104.077 129.203 107.258C129.203 110.439 126.618 113.022 123.434 113.022C120.249 113.022 117.664 110.439 117.664 107.258C117.664 104.077 120.249 101.494 123.434 101.494Z" fill="#03FF98"/>
<path d="M12.309 80.9429C13.9703 80.9429 15.3191 82.2905 15.3191 83.9503C15.3191 85.6102 13.9703 86.9578 12.309 86.9578C10.6477 86.9578 9.29883 85.6102 9.29883 83.9503C9.29883 82.2905 10.6477 80.9429 12.309 80.9429Z" fill="#03FF98"/>
<path d="M124.186 56.8833C126.124 56.8833 127.698 58.4556 127.698 60.392C127.698 62.3285 126.124 63.9007 124.186 63.9007C122.248 63.9007 120.674 62.3285 120.674 60.392C120.674 58.4556 122.248 56.8833 124.186 56.8833Z" fill="#03FF98"/>
<path d="M64.7356 9.26465C66.5353 9.26465 67.9966 10.7246 67.9966 12.5227C67.9966 14.3209 66.5353 15.7808 64.7356 15.7808C62.9359 15.7808 61.4746 14.3209 61.4746 12.5227C61.4746 10.7246 62.9359 9.26465 64.7356 9.26465Z" fill="#03FF98"/>
<path d="M68.749 129.563C70.8256 129.563 72.5117 131.248 72.5117 133.323C72.5117 135.398 70.8256 137.082 68.749 137.082C66.6724 137.082 64.9863 135.398 64.9863 133.323C64.9863 131.248 66.6724 129.563 68.749 129.563Z" fill="#03FF98"/>
</g>
<g opacity="0.501876">
<path d="M136.711 57.9639L138.33 61.2407L141.949 61.7662L139.33 64.3169L139.948 67.9185L136.711 66.218L133.474 67.9185L134.092 64.3169L131.473 61.7662L135.092 61.2407L136.711 57.9639Z" fill="#FF8903"/>
<path d="M6.96323 58.854L8.87583 62.7259L13.1525 63.3468L10.0579 66.3607L10.7884 70.6163L6.96323 68.607L3.13803 70.6163L3.86858 66.3607L0.773926 63.3468L5.05063 62.7259L6.96323 58.854Z" fill="#FF8903"/>
<path d="M66.3521 0.900879L67.5799 3.38718L70.326 3.78552L68.3387 5.72048L68.8081 8.45297L66.3521 7.16254L63.8961 8.45297L64.3655 5.72048L62.3782 3.78552L65.1243 3.38718L66.3521 0.900879Z" fill="#FF8903"/>
<path d="M70.8915 129.15L72.8041 133.022L77.0808 133.643L73.9861 136.657L74.7167 140.913L70.8915 138.903L67.0663 140.913L67.7968 136.657L64.7021 133.643L68.9789 133.022L70.8915 129.15Z" fill="#FF8903"/>
</g>
<g opacity="0.01">
<path d="M69 24.1548C96.5042 24.1548 118.836 46.4663 118.836 73.9461C118.836 101.426 96.5042 123.737 69 123.737C41.4957 123.737 19.1643 101.426 19.1643 73.9461C19.1643 46.4663 41.4957 24.1548 69 24.1548Z" fill="#3AF65A"/>
</g>
<g opacity="0.999999">
<path d="M69.0001 42.8213C86.0808 42.8213 99.949 56.6771 99.949 73.7426C99.949 90.8081 86.0808 104.664 69.0001 104.664C51.9195 104.664 38.0513 90.8081 38.0513 73.7426C38.0513 56.6771 51.9195 42.8213 69.0001 42.8213Z" fill="#00CF33"/>
</g>
<path d="M56.0107 72.4252L64.8813 81.2879L80.9056 65.2778" stroke="white" stroke-width="11.7595" stroke-linecap="round"/>
</svg>
