<svg width="24" height="24" viewBox="0 0 24 24" fill="none" xmlns="http://www.w3.org/2000/svg">
<path d="M12.7071 2.29289C12.3166 1.90237 11.6834 1.90237 11.2929 2.29289L7.29289 6.29289C6.90237 6.68342 6.90237 7.31658 7.29289 7.70711C7.68342 8.09763 8.31658 8.09763 8.70711 7.70711L11 5.41421V17C11 17.5523 11.4477 18 12 18C12.5523 18 13 17.5523 13 17V5.41421L15.2929 7.70711C15.6834 8.09763 16.3166 8.09763 16.7071 7.70711C17.0976 7.31658 17.0976 6.68342 16.7071 6.29289L12.7071 2.29289Z" fill="url(#paint0_linear_1248_3765)"/>
<path d="M4 17.5C4 16.9477 3.55228 16.5 3 16.5C2.44772 16.5 2 16.9477 2 17.5V19C2 21.2091 3.79086 23 6 23H18C20.2091 23 22 21.2091 22 19V17.5C22 16.9477 21.5523 16.5 21 16.5C20.4477 16.5 20 16.9477 20 17.5V19C20 20.1046 19.1046 21 18 21H6C4.89543 21 4 20.1046 4 19V17.5Z" fill="url(#paint1_linear_1248_3765)"/>
<defs>
<linearGradient id="paint0_linear_1248_3765" x1="2" y1="12.5" x2="22" y2="12.5" gradientUnits="userSpaceOnUse">
<stop stop-color="#EAF9FF"/>
<stop offset="1" stop-color="#8E9A9A"/>
</linearGradient>
<linearGradient id="paint1_linear_1248_3765" x1="2" y1="12.5" x2="22" y2="12.5" gradientUnits="userSpaceOnUse">
<stop stop-color="#EAF9FF"/>
<stop offset="1" stop-color="#8E9A9A"/>
</linearGradient>
</defs>
</svg>
